<svg width="760" height="560" viewBox="0 0 760 560" fill="none" xmlns="http://www.w3.org/2000/svg" role="img" aria-labelledby="title desc">
  <title id="title">Development workbench illustration</title>
  <desc id="desc">A calm interface illustration showing code, deployment status, health check output, and security scan results.</desc>
  <rect width="760" height="560" rx="24" fill="#F4F7F5"/>
  <rect x="36" y="36" width="688" height="488" rx="18" fill="#151918"/>
  <rect x="36" y="36" width="688" height="54" rx="18" fill="#243029"/>
  <circle cx="68" cy="63" r="7" fill="#E19A72"/>
  <circle cx="92" cy="63" r="7" fill="#E7C95A"/>
  <circle cx="116" cy="63" r="7" fill="#65C6A6"/>
  <rect x="60" y="118" width="310" height="250" rx="12" fill="#EEF3F0"/>
  <rect x="82" y="142" width="132" height="12" rx="6" fill="#256F5B"/>
  <rect x="82" y="174" width="220" height="10" rx="5" fill="#9CAFAD"/>
  <rect x="82" y="198" width="180" height="10" rx="5" fill="#C6D2CD"/>
  <rect x="82" y="222" width="240" height="10" rx="5" fill="#C6D2CD"/>
  <rect x="82" y="264" width="250" height="64" rx="8" fill="#FFFFFF" stroke="#D8E0DC"/>
  <rect x="104" y="286" width="74" height="8" rx="4" fill="#256F5B"/>
  <rect x="104" y="306" width="176" height="8" rx="4" fill="#D8E0DC"/>
  <rect x="400" y="118" width="300" height="118" rx="12" fill="#1F2823" stroke="#334239"/>
  <text x="424" y="154" fill="#65C6A6" font-family="monospace" font-size="18" font-weight="700">/health</text>
  <text x="424" y="186" fill="#EEF5F1" font-family="monospace" font-size="15">{ "status": "ok" }</text>
  <rect x="400" y="260" width="300" height="108" rx="12" fill="#1F2823" stroke="#334239"/>
  <text x="424" y="296" fill="#E19A72" font-family="monospace" font-size="18" font-weight="700">security gate</text>
  <rect x="424" y="318" width="88" height="12" rx="6" fill="#65C6A6"/>
  <rect x="528" y="318" width="62" height="12" rx="6" fill="#E7C95A"/>
  <rect x="606" y="318" width="52" height="12" rx="6" fill="#65C6A6"/>
  <rect x="60" y="398" width="640" height="86" rx="12" fill="#243029"/>
  <text x="84" y="435" fill="#EEF5F1" font-family="monospace" font-size="16">$ docker compose up --build</text>
  <text x="84" y="462" fill="#65C6A6" font-family="monospace" font-size="16">portfolio: listening on :3000</text>
  <path d="M596 132L650 156V216C650 249 628 279 596 289C564 279 542 249 542 216V156L596 132Z" fill="#256F5B"/>
  <path d="M573 209L589 225L622 188" stroke="#F4F7F5" stroke-width="10" stroke-linecap="round" stroke-linejoin="round"/>
</svg>
